HIERARCHY
ROOT Pelvis
{
	OFFSET 0.000000 0.000000 0.000000
	CHANNELS 6 Xposition Yposition Zposition Xrotation Yrotation Zrotation
	JOINT LeftUpLeg_virtual
	{
		OFFSET 0.000000 0.000000 0.000000
		CHANNELS 3 Xrotation Yrotation Zrotation
		JOINT LeftUpLeg
		{
			OFFSET 18.735201 -5.666702 -4.541200
			CHANNELS 3 Xrotation Yrotation Zrotation
			JOINT LeftLeg
			{
				OFFSET -0.021200 -31.938179 0.493100
				CHANNELS 3 Xrotation Yrotation Zrotation
				JOINT LeftFoot
				{
					OFFSET 0.021200 -31.938179 -4.336299
					CHANNELS 3 Xrotation Yrotation Zrotation
					JOINT LeftToeBase
					{
						OFFSET 0.943001 -26.722000 15.023500
						CHANNELS 3 Xrotation Yrotation Zrotation
						End Site
						{
							OFFSET 0 0 0
						}
					}
				}
			}
		}
	}
	JOINT RightUpLeg_virtual
	{
		OFFSET 0.000000 0.000000 0.000000
		CHANNELS 3 Xrotation Yrotation Zrotation
		JOINT RightUpLeg
		{
			OFFSET -18.735201 -5.666702 -4.541200
			CHANNELS 3 Xrotation Yrotation Zrotation
			JOINT RightLeg
			{
				OFFSET 0.018946 -31.938133 0.493100
				CHANNELS 3 Xrotation Yrotation Zrotation
				JOINT RightFoot
				{
					OFFSET -0.018946 -31.938126 -4.336299
					CHANNELS 3 Xrotation Yrotation Zrotation
					JOINT RightToeBase
					{
						OFFSET -0.943001 -26.722004 15.023500
						CHANNELS 3 Xrotation Yrotation Zrotation
						End Site
						{
							OFFSET 0 0 0
						}
					}
				}
			}
		}
	}
	JOINT Hips_virtual
	{
		OFFSET 0.000000 0.000000 0.000000
		CHANNELS 3 Xrotation Yrotation Zrotation
		JOINT Hips
		{
			OFFSET -0.000000 -0.000000 -0.000000
			CHANNELS 3 Xrotation Yrotation Zrotation
			JOINT Spine
			{
				OFFSET 0.000000 10.199997 -0.299500
				CHANNELS 3 Xrotation Yrotation Zrotation
				JOINT Spine1
				{
					OFFSET 0.000000 11.900002 -1.516600
					CHANNELS 3 Xrotation Yrotation Zrotation
					JOINT Spine2
					{
						OFFSET 0.000000 13.600006 -2.842500
						CHANNELS 3 Xrotation Yrotation Zrotation
						JOINT Neck_virtual
						{
							OFFSET 0.000000 0.000000 0.000000
							CHANNELS 3 Xrotation Yrotation Zrotation
							JOINT Neck
							{
								OFFSET 0.000000 9.624100 -2.890100
								CHANNELS 3 Xrotation Yrotation Zrotation
								JOINT Head
								{
									OFFSET 0.000000 14.068802 -1.351900
									CHANNELS 3 Xrotation Yrotation Zrotation
									End Site
									{
										OFFSET 0 0 0
									}
								}
							}
						}
						JOINT LeftShoulder_virtual
						{
							OFFSET 0.000000 0.000000 0.000000
							CHANNELS 3 Xrotation Yrotation Zrotation
							JOINT LeftShoulder
							{
								OFFSET 15.263000 10.923401 -0.547700
								CHANNELS 3 Xrotation Yrotation Zrotation
								JOINT LeftArm
								{
									OFFSET 25.438599 -2.830597 -13.032500
									CHANNELS 3 Xrotation Yrotation Zrotation
									JOINT LeftForeArm
									{
										OFFSET 29.960503 0.000000 0.000000
										CHANNELS 3 Xrotation Yrotation Zrotation
										JOINT LeftHand
										{
											OFFSET 27.849251 0.000000 0.000000
											CHANNELS 3 Xrotation Yrotation Zrotation
											End Site
											{
												OFFSET 0 0 0
											}
										}
									}
								}
							}
						}
						JOINT RightShoulder_virtual
						{
							OFFSET 0.000000 0.000000 0.000000
							CHANNELS 3 Xrotation Yrotation Zrotation
							JOINT RightShoulder
							{
								OFFSET -15.263000 10.923401 -0.547700
								CHANNELS 3 Xrotation Yrotation Zrotation
								JOINT RightArm
								{
									OFFSET -25.438599 -2.830597 -13.032500
									CHANNELS 3 Xrotation Yrotation Zrotation
									JOINT RightForeArm
									{
										OFFSET -29.960503 0.000000 0.000000
										CHANNELS 3 Xrotation Yrotation Zrotation
										JOINT RightHand
										{
											OFFSET -27.849251 0.000000 0.000000
											CHANNELS 3 Xrotation Yrotation Zrotation
											End Site
											{
												OFFSET 0 0 0
											}
										}
									}
								}
							}
						}
					}
				}
			}
		}
	}
}
MOTION
Frames: 10
Frame Time: 0.03333333
0.255105 55.875397 10.496231 0.000000 0.000000 0.000000 0.145596 0.090245 0.913894 -100.887529 -11.094619 12.487972 84.223493 3.940379 -0.119795 18.525457 -7.657486 -7.640717 0.000000 0.000000 0.000000 0.145596 0.090245 0.913894 -102.688520 12.056288 -8.145137 85.278402 -3.465727 -1.479887 19.295252 0.869983 9.054456 0.000000 0.000000 0.000000 0.145596 0.090245 0.913894 0.000000 0.000000 0.000000 10.430443 0.098795 -1.540589 -0.199273 0.216427 -0.355483 0.000000 0.000000 0.000000 -0.199596 0.248527 -0.300892 -0.401935 -0.509651 0.190450 0.000000 0.000000 0.000000 -0.199596 0.248527 -0.300892 0.823522 -15.262022 -7.868745 4.746748 -21.216412 -54.862217 0.000053 -62.197547 0.000066 0.000000 0.000000 0.000000 -0.199596 0.248527 -0.300892 3.171098 -4.378723 8.782890 -3.950257 37.253416 63.733663 -0.000012 55.137938 0.000001 0.000000 0.000000 0.000000 
0.241941 55.820503 10.598591 0.000000 0.000000 0.000000 0.270524 0.120047 0.920887 -101.306739 -11.066792 12.299503 84.311350 4.029614 -0.036223 18.941498 -7.526746 -7.399302 0.000000 0.000000 0.000000 0.270524 0.120047 0.920887 -103.153342 12.075710 -7.871012 85.656125 -3.564686 -1.614555 19.554470 0.716244 8.863501 0.000000 0.000000 0.000000 0.270524 0.120047 0.920887 0.000000 0.000000 0.000000 10.538138 0.083012 -1.545725 0.117322 0.217353 -0.407600 0.000000 0.000000 0.000000 -0.022415 0.256674 -0.330249 -0.243874 -0.509384 0.152254 0.000000 0.000000 0.000000 -0.022415 0.256674 -0.330249 1.483756 -14.226184 -5.573874 1.069128 -20.426972 -59.574180 0.000014 -61.355070 0.000008 0.000000 0.000000 0.000000 -0.022415 0.256674 -0.330249 3.198768 -5.102190 7.675742 -5.994475 37.040157 66.362357 0.000024 54.665733 -0.000019 0.000000 0.000000 0.000000 
0.221941 55.767021 10.719349 0.000000 0.000000 0.000000 0.321778 0.149419 0.932109 -101.858468 -11.136079 12.097463 84.565651 4.121925 0.142332 19.368630 -7.260607 -7.520987 0.000000 0.000000 0.000000 0.321778 0.149419 0.932109 -103.667641 12.033866 -7.469802 85.861768 -3.564147 -1.905844 20.436223 0.412862 8.796504 0.000000 0.000000 0.000000 0.321778 0.149419 0.932109 0.000000 0.000000 0.000000 10.755193 0.061631 -1.553099 0.561807 0.226205 -0.458109 0.000000 0.000000 0.000000 0.311176 0.271968 -0.384474 -0.050448 -0.506798 0.110149 0.000000 0.000000 0.000000 0.311176 0.271968 -0.384474 2.105336 -13.032949 -2.969769 -2.448521 -19.928781 -64.159409 -0.000025 -60.572850 -0.000042 0.000000 0.000000 0.000000 0.311176 0.271968 -0.384474 3.198646 -5.900650 6.470102 -8.231922 36.790548 69.124219 -0.000009 54.322001 0.000005 0.000000 0.000000 0.000000 
0.205199 55.719841 10.829075 0.000000 0.000000 0.000000 0.339596 0.175919 0.942738 -102.438972 -11.194642 11.828494 84.843312 4.212484 0.414574 19.788687 -6.878444 -7.782104 0.000000 0.000000 0.000000 0.339596 0.175919 0.942738 -104.129027 11.892194 -6.955433 85.911465 -3.472953 -2.358104 21.484888 -0.099092 8.874893 0.000000 0.000000 0.000000 0.339596 0.175919 0.942738 0.000000 0.000000 0.000000 11.068862 0.045739 -1.559393 1.150179 0.241931 -0.514970 0.000000 0.000000 0.000000 0.790866 0.295513 -0.461894 0.172913 -0.502573 0.065937 0.000000 0.000000 0.000000 0.790866 0.295513 -0.461894 2.644605 -11.707454 -0.109113 -5.808110 -19.746091 -68.588992 0.000009 -59.897303 0.000022 0.000000 0.000000 0.000000 0.790866 0.295513 -0.461894 3.163798 -6.760641 5.176094 -10.632071 36.518542 71.973146 0.000004 54.067064 -0.000001 0.000000 0.000000 0.000000 
0.202221 55.695351 10.905151 0.000000 0.000000 0.000000 0.382783 0.197313 0.948586 -102.970491 -11.209327 11.550383 85.095353 4.252655 0.721321 20.039334 -6.451542 -8.122603 0.000000 0.000000 0.000000 0.382783 0.197313 0.948586 -104.422282 11.708442 -6.358155 85.801820 -3.431040 -2.924767 22.271353 -0.734026 9.151181 0.000000 0.000000 0.000000 0.382783 0.197313 0.948586 0.000000 0.000000 0.000000 11.434914 0.042117 -1.562197 1.819991 0.261522 -0.576246 0.000000 0.000000 0.000000 1.350171 0.323237 -0.552269 0.413308 -0.498171 0.024007 0.000000 0.000000 0.000000 1.350171 0.323237 -0.552269 3.059795 -10.315391 2.847923 -8.967098 -19.707579 -72.794141 0.000001 -59.348333 -0.000010 0.000000 0.000000 0.000000 1.350171 0.323237 -0.552269 3.090343 -7.641477 3.832549 -13.143296 36.248282 74.849953 0.000022 53.791046 -0.000023 0.000000 0.000000 0.000000 
0.225941 55.711815 10.915897 0.000000 0.000000 0.000000 0.490038 0.208849 0.947184 -103.357715 -11.128973 11.358238 85.270049 4.187290 0.976518 19.960905 -6.059039 -8.427110 0.000000 0.000000 0.000000 0.490038 0.208849 0.947184 -104.424201 11.596725 -5.680822 85.484742 -3.669543 -3.527950 22.427553 -1.291258 9.609042 0.000000 0.000000 0.000000 0.490038 0.208849 0.947184 0.000000 0.000000 0.000000 11.842429 0.061141 -1.560077 2.547185 0.286203 -0.639090 0.000000 0.000000 0.000000 1.972552 0.355291 -0.653411 0.652790 -0.494487 -0.009584 0.000000 0.000000 0.000000 1.972552 0.355291 -0.653411 3.334359 -8.932674 5.680482 -11.868961 -19.507966 -76.691242 0.000038 -58.875869 0.000033 0.000000 0.000000 0.000000 1.972552 0.355291 -0.653411 2.980579 -8.486972 2.497494 -15.704374 35.962770 77.715265 -0.000006 53.401448 0.000006 0.000000 0.000000 0.000000 
0.278234 55.740799 10.825378 0.000000 0.000000 0.000000 0.679400 0.212118 0.944524 -103.554745 -10.925119 11.325614 85.383293 3.788306 1.126224 19.336069 -5.711635 -8.656110 0.000000 0.000000 0.000000 0.679400 0.212118 0.944524 -104.225907 11.608601 -4.923545 84.890352 -4.061896 -4.105690 22.084669 -1.697719 10.150319 0.000000 0.000000 0.000000 0.679400 0.212118 0.944524 0.000000 0.000000 0.000000 12.255017 0.100628 -1.556006 3.280980 0.313707 -0.702276 0.000000 0.000000 0.000000 2.602937 0.388013 -0.756591 0.868055 -0.491960 -0.030166 0.000000 0.000000 0.000000 2.602937 0.388013 -0.756591 3.481068 -7.641893 8.182007 -14.371748 -18.912799 -80.164844 0.000003 -58.517420 0.000003 0.000000 0.000000 0.000000 2.602937 0.388013 -0.756591 2.842312 -9.254246 1.219922 -18.145034 35.580054 80.488151 0.000002 53.022287 -0.000013 0.000000 0.000000 0.000000 
0.336923 55.704887 10.652084 0.000000 0.000000 0.000000 1.050197 0.226263 0.954373 -103.699012 -10.614805 11.430560 85.415019 3.030368 1.176395 18.308715 -5.370874 -8.809269 0.000000 0.000000 0.000000 1.050197 0.226263 0.954373 -104.408232 11.661675 -4.168537 84.844022 -4.441906 -4.638004 20.691961 -2.337327 10.743613 0.000000 0.000000 0.000000 1.050197 0.226263 0.954373 0.000000 0.000000 0.000000 12.636913 0.147327 -1.554013 3.972946 0.336889 -0.763607 0.000000 0.000000 0.000000 3.188178 0.412849 -0.851425 1.024757 -0.491345 -0.037388 0.000000 0.000000 0.000000 3.188178 0.412849 -0.851425 3.538004 -6.589555 10.174456 -16.129410 -17.929206 -82.956288 -0.000013 -58.642734 -0.000015 0.000000 0.000000 0.000000 3.188178 0.412849 -0.851425 2.686035 -9.915124 0.037834 -20.014584 35.025968 82.852626 -0.000001 53.126195 -0.000017 0.000000 0.000000 0.000000 
0.371130 55.630135 10.565094 0.000000 0.000000 0.000000 1.845459 0.284198 0.988576 -104.047414 -10.300462 11.563772 85.408401 2.138936 1.172465 17.099324 -5.013733 -8.972758 0.000000 0.000000 0.000000 1.845459 0.284198 0.988576 -104.923044 11.702032 -3.946264 84.727670 -4.041515 -5.080936 19.918737 -3.567646 11.947361 0.000000 0.000000 0.000000 1.845459 0.284198 0.988576 0.000000 0.000000 0.000000 12.949059 0.197657 -1.554156 4.571353 0.363980 -0.822614 0.000000 0.000000 0.000000 3.672787 0.436646 -0.930837 1.083343 -0.493743 -0.035365 0.000000 0.000000 0.000000 3.672787 0.436646 -0.930837 3.568137 -5.986403 11.537112 -16.860131 -16.811956 -84.742137 -0.000022 -59.674823 -0.000027 0.000000 0.000000 0.000000 3.672787 0.436646 -0.930837 2.525353 -10.426540 -0.995646 -20.753371 34.309365 84.300558 0.000031 54.231757 -0.000036 0.000000 0.000000 0.000000 
0.343913 55.734856 10.937672 0.000000 0.000000 0.000000 3.272231 0.407709 1.053721 -104.581944 -10.127949 11.653933 85.606203 1.410668 1.151879 15.501540 -4.677006 -9.323201 0.000000 0.000000 0.000000 3.272231 0.407709 1.053721 -105.942730 11.437464 -4.107955 85.220516 -3.168016 -5.460408 19.335803 -5.539088 13.058131 0.000000 0.000000 0.000000 3.272231 0.407709 1.053721 0.000000 0.000000 0.000000 13.157669 0.240794 -1.556659 5.026121 0.393745 -0.874906 0.000000 0.000000 0.000000 4.005717 0.457173 -0.986546 1.019168 -0.500060 -0.029370 0.000000 0.000000 0.000000 4.005717 0.457173 -0.986546 3.637912 -6.024261 12.241039 -16.614461 -15.695194 -85.439362 0.000016 -61.534772 0.000021 0.000000 0.000000 0.000000 4.005717 0.457173 -0.986546 2.381183 -10.715793 -1.801753 -20.312906 33.464939 84.694551 -0.000004 56.201266 0.000010 0.000000 0.000000 0.000000 
